<svg xmlns="http://www.w3.org/2000/svg" viewBox="0 0 86.12 89.61"><defs><style>.cls-1{fill:#ccc;}</style></defs><g id="레이어_2" data-name="레이어 2"><g id="레이어_1-2" data-name="레이어 1"><path class="cls-1" d="M84.81,55.45l-4.34-4.37a4.54,4.54,0,0,1-1.29-3.55c.07-.9.11-1.81.11-2.73,0-1.19-.06-2.37-.17-3.53a4.48,4.48,0,0,1,1.19-3.51l4.16-4.43A4.52,4.52,0,0,0,85.09,28L78.21,16.07A4.51,4.51,0,0,0,73.15,14l-6,1.58a4.49,4.49,0,0,1-3.68-.64A35.77,35.77,0,0,0,58,11.81,4.46,4.46,0,0,1,55.59,9L53.83,3.2A4.52,4.52,0,0,0,49.51,0H35.75A4.5,4.5,0,0,0,31.4,3.33L29.79,9.26a4.48,4.48,0,0,1-2.37,2.87A35.81,35.81,0,0,0,22,15.35a4.49,4.49,0,0,1-3.62.72l-5.94-1.39a4.49,4.49,0,0,0-4.92,2.13L.6,28.73a4.52,4.52,0,0,0,.71,5.43l4.34,4.37a4.52,4.52,0,0,1,1.29,3.55c-.07.9-.11,1.81-.11,2.72,0,1.2.06,2.38.17,3.54a4.48,4.48,0,0,1-1.19,3.51L1.65,56.28A4.52,4.52,0,0,0,1,61.62L7.91,73.54A4.51,4.51,0,0,0,13,75.64l6-1.58a4.52,4.52,0,0,1,3.68.63,35.83,35.83,0,0,0,5.51,3.11,4.46,4.46,0,0,1,2.42,2.78l1.77,5.83a4.49,4.49,0,0,0,4.31,3.2H50.37a4.5,4.5,0,0,0,4.35-3.33l1.61-5.93a4.48,4.48,0,0,1,2.37-2.87,35.81,35.81,0,0,0,5.45-3.22,4.46,4.46,0,0,1,3.63-.72l5.93,1.39a4.53,4.53,0,0,0,4.93-2.13l6.88-11.92A4.51,4.51,0,0,0,84.81,55.45Zm-41.75,8.7A19.35,19.35,0,1,1,62.4,44.8,19.34,19.34,0,0,1,43.06,64.15Z"/></g></g></svg>