<svg xmlns="http://www.w3.org/2000/svg" viewBox="0 0 16.98 16.29"><defs><style>.cls-1{fill:#424142;}</style></defs><g id="레이어_2" data-name="레이어 2"><g id="레이어_1-2" data-name="레이어 1"><path class="cls-1" d="M9.79.81l1.5,3a1.45,1.45,0,0,0,1.1.8l3.35.49a1.45,1.45,0,0,1,.8,2.48L14.12,10a1.46,1.46,0,0,0-.42,1.29l.57,3.33a1.45,1.45,0,0,1-2.11,1.53l-3-1.57a1.48,1.48,0,0,0-1.36,0l-3,1.57a1.45,1.45,0,0,1-2.11-1.53l.57-3.33A1.43,1.43,0,0,0,2.86,10L.44,7.61a1.45,1.45,0,0,1,.81-2.48L4.6,4.64a1.46,1.46,0,0,0,1.09-.8l1.5-3A1.45,1.45,0,0,1,9.79.81Z"/></g></g></svg>