<svg xmlns="http://www.w3.org/2000/svg" viewBox="0 0 13.74 15.17"><defs><style>.cls-1{fill:none;}.cls-1,.cls-2{stroke:#fff;stroke-linecap:round;stroke-linejoin:round;stroke-width:0.5px;}.cls-2{fill:#fff;}</style></defs><g id="레이어_2" data-name="레이어 2"><g id="레이어_1-2" data-name="레이어 1"><path class="cls-1" d="M12.86,1.36,8.61.32a2.79,2.79,0,0,0-1.22,0L6.33.58,6.19.85,7.63,2.2h0a1.46,1.46,0,0,1,.72,0l2.83.72a.41.41,0,0,1,.41.42c-.09,4.71-.09,4.86-3.27,8.38,0,0,0,0-.06,0L8.46,13,8,14.18a.91.91,0,0,0,.71-.27C13.35,9,13.36,8.69,13.49,2A.62.62,0,0,0,12.86,1.36Z"/><path class="cls-1" d="M6,12.5a.44.44,0,0,1-.6-.05C2.22,8.94,2.22,8.78,2.14,4.08a.41.41,0,0,1,.4-.42l2.82-.72L3.92,1.58l.14-.27L.87,2.09a.61.61,0,0,0-.62.61c.13,6.73.13,7,4.81,11.94a.92.92,0,0,0,.63.28l.5-1.18Z"/><path class="cls-2" d="M7.59,6.21A13,13,0,0,1,9,8,17.63,17.63,0,0,1,8,9.92l.27,1.84s.05,0,.06,0c3.18-3.52,3.18-3.67,3.27-8.38a.41.41,0,0,0-.41-.42L8.36,2.2a1.46,1.46,0,0,0-.72,0h0l.74.71Z"/><path class="cls-2" d="M2.14,4.08c.08,4.7.08,4.86,3.26,8.37a.44.44,0,0,0,.6.05l-.27-1.85a16.79,16.79,0,0,0,.95-1.94A13.61,13.61,0,0,0,5.32,6.94l.78-3.3-.74-.7-2.82.72A.41.41,0,0,0,2.14,4.08Z"/></g></g></svg>