<svg xmlns="http://www.w3.org/2000/svg" viewBox="0 0 14.27 14.62"><defs><style>.cls-1{fill:none;stroke:#fff;stroke-linecap:round;stroke-linejoin:round;stroke-width:0.5px;}.cls-2{fill:#fff;}</style></defs><g id="레이어_2" data-name="레이어 2"><g id="레이어_1-2" data-name="레이어 1"><path class="cls-1" d="M5.57,10.51h0l1.24,1.4A.42.42,0,0,0,7,12a.42.42,0,0,1-.14-.09Z"/><path class="cls-1" d="M3.59,5.17h0a8.18,8.18,0,0,0,.53,3.21h0A8.22,8.22,0,0,1,3.59,5.17Z"/><path class="cls-1" d="M7.46,11.9s0,0,0,0h0l0,0c.48-.54.89-1,1.24-1.41h0C8.35,10.91,7.94,11.37,7.46,11.9Z"/><path class="cls-1" d="M7.1,12,7,12Z"/><path class="cls-1" d="M10.15,8.38a6,6,0,0,0,.47-2.05,6,6,0,0,1-.47,2.05Z"/><path class="cls-1" d="M7.4,12Z"/><path class="cls-1" d="M7.25,12h0Z"/><path class="cls-1" d="M11,3.9l1.2,1.42a.33.33,0,0,1-.31.54l-.49-.08a.34.34,0,0,1-.19-.09l-.52-.52c0,.43,0,.81-.06,1.16a6,6,0,0,1-.47,2.05l1.37,1.23c1-1.73,1-3.44,1.08-7.26a8,8,0,0,1-.64.7A7.85,7.85,0,0,1,11,3.9Z"/><path class="cls-1" d="M9.71,11.63l-1-1.13c-.35.41-.76.87-1.24,1.41l0,0v0h0a.52.52,0,0,1-.13.06h0a.25.25,0,0,1-.12,0L7,12l0,0a.42.42,0,0,1-.14-.09l-1.24-1.4-1,1.12a.24.24,0,0,1-.13.09l-.11,0c.58.67,1.29,1.42,2.16,2.33a.84.84,0,0,0,.6.27h0a.85.85,0,0,0,.68-.27c.87-.91,1.58-1.66,2.16-2.33l-.11,0A.24.24,0,0,1,9.71,11.63Z"/><path class="cls-1" d="M3.59,5.17l-.52.52a.34.34,0,0,1-.18.09l-.5.08a.33.33,0,0,1-.31-.54l1.2-1.41a10,10,0,0,1-1-.85c-.23-.24-.45-.48-.63-.7.07,3.81.13,5.52,1.08,7.25L4.12,8.38A8.18,8.18,0,0,1,3.59,5.17Z"/><path class="cls-2" d="M5.69,3.07,5,3.76,7.14,5.68,9.28,3.76l-.7-.69a.34.34,0,0,1-.09-.18l0-.26-1-.25a1.42,1.42,0,0,0-.71,0h0l-.95.24,0,.26A.34.34,0,0,1,5.69,3.07Z"/><path class="cls-2" d="M7.46,11.9c.48-.53.89-1,1.24-1.4L7.14,8.76,5.57,10.51l1.24,1.4A.42.42,0,0,0,7,12l0,0,.11,0a.25.25,0,0,0,.12,0h0A.52.52,0,0,0,7.38,12h0l0,0h0S7.45,11.92,7.46,11.9Z"/><path class="cls-2" d="M3.76,5l-.17.18a8.22,8.22,0,0,0,.53,3.21L5.6,7.05Z"/><path class="cls-2" d="M10.45,5.17,8.61,7.23l1.48,1.33a6.07,6.07,0,0,0,.47-2.06c0-.34,0-.73.06-1.16Z"/><path class="cls-1" d="M7,12l0,0Z"/><path class="cls-1" d="M7.4,12h0v0l0,0Z"/><path class="cls-2" d="M6.77,2.39h0a1.42,1.42,0,0,1,.71,0l1,.25h0l-1-.25a1.46,1.46,0,0,0-.72,0h0l-.93.24h0Z"/><path class="cls-1" d="M12,1.54,7.73.51a2.48,2.48,0,0,0-1.21,0L5.45.77h0l-3.17.77-.06,0c.26.21.55.46.84.74s.53.58.74.84h0l.11.14.26-.22h0l1.15-1a.33.33,0,0,1,.54.31l0,.24.93-.24h0a1.46,1.46,0,0,1,.72,0l1,.25,0-.24A.34.34,0,0,1,9,2.08l1.15,1h0l.27.23.1-.14h0a8.71,8.71,0,0,1,.74-.83,10.63,10.63,0,0,1,.84-.75Z"/><path class="cls-1" d="M7.38,12a.52.52,0,0,1-.13.06A.52.52,0,0,0,7.38,12Z"/><path class="cls-1" d="M7.22,12a.25.25,0,0,1-.12,0A.25.25,0,0,0,7.22,12Z"/><path class="cls-1" d="M10.62,6.33c0-.35.05-.73.06-1.16h0C10.67,5.6,10.65,6,10.62,6.33Z"/><path class="cls-1" d="M11.72,9.84a.24.24,0,0,0-.09-.13l-.11-.1L10.27,8.48l-.12-.1h0L8.69,7.08h0L7.16,8.79h0L8.7,10.5h0l1,1.13a.24.24,0,0,0,.13.09l.11,0,2.16.77a.32.32,0,0,0,.42-.42Z"/><path class="cls-1" d="M13.81.46a.75.75,0,0,0-1,0,.74.74,0,0,0-.18.72,6.1,6.1,0,0,0-.53.38,10.63,10.63,0,0,0-.84.75,8.71,8.71,0,0,0-.74.83h0l-.1.14-.27-.23L10,3,10,2.94,9,2.08a.34.34,0,0,0-.54.31l0,.24h0l0,.26a.34.34,0,0,0,.09.18l.7.69,0,0L7.16,5.71,5.63,7.08,4.14,8.41h0L2.78,9.63l-.12.1a.42.42,0,0,0-.09.14l-.81,2.27a.33.33,0,0,0,.42.42l2.17-.77.1,0a.34.34,0,0,0,.14-.09l1-1.13h0L7.16,8.79h0L8.69,7.08h0L10.54,5l.14.15h0l.52.52a.34.34,0,0,0,.19.09l.49.08a.33.33,0,0,0,.31-.54L11,3.9a7.85,7.85,0,0,0,1-.85,8,8,0,0,0,.64-.7,4.67,4.67,0,0,0,.49-.67.72.72,0,0,0,.72-.18A.75.75,0,0,0,13.81.46Z"/><path class="cls-1" d="M5,3.76l.7-.69a.34.34,0,0,0,.09-.18l0-.26h0l0-.24a.33.33,0,0,0-.54-.31l-1.15,1h0l-.26.22L3.8,3.14h0c-.21-.26-.46-.55-.74-.84s-.58-.53-.84-.74a5.55,5.55,0,0,0-.54-.38A.72.72,0,0,0,1.5.46a.75.75,0,0,0-1,0,.75.75,0,0,0,0,1,.72.72,0,0,0,.72.18,5.32,5.32,0,0,0,.49.68c.18.22.4.46.63.7a10,10,0,0,0,1,.85L2.08,5.32a.33.33,0,0,0,.31.54l.5-.08a.34.34,0,0,0,.18-.09l.52-.52h0L3.76,5,5.6,7.05,7.14,5.68Z"/></g></g></svg>