<svg xmlns="http://www.w3.org/2000/svg" viewBox="0 0 14.27 14.63"><defs><style>.cls-1{fill:#f8d781;}.cls-1,.cls-2,.cls-3,.cls-4{stroke:#231815;stroke-miterlimit:10;stroke-width:0.5px;}.cls-2{fill:#444;}.cls-3{fill:#efefef;}.cls-4{fill:#2a2b2b;}</style></defs><g id="레이어_2" data-name="레이어 2"><g id="레이어_1-2" data-name="레이어 1"><path class="cls-1" d="M12.61,2.15A.62.62,0,0,0,12,1.54L7.73.51a2.48,2.48,0,0,0-1.21,0L5.45.77h0l-3.17.77a.62.62,0,0,0-.62.61c.13,6.73.14,7,4.82,11.94a.84.84,0,0,0,.6.27h0a.85.85,0,0,0,.68-.27C12.48,9.17,12.48,8.88,12.61,2.15ZM3.55,3.53A.41.41,0,0,1,4,3.11l2.81-.72h0a1.42,1.42,0,0,1,.71,0l2.83.73a.41.41,0,0,1,.41.42c-.08,4.71-.09,4.86-3.26,8.38l-.07,0h0a.47.47,0,0,1-.59-.05C3.64,8.39,3.63,8.24,3.55,3.53Z"/><path class="cls-2" d="M10.72,3.53a.41.41,0,0,0-.41-.42L7.48,2.38a1.46,1.46,0,0,0-.72,0h0L4,3.11a.41.41,0,0,0-.41.42c.08,4.71.09,4.86,3.26,8.38a.46.46,0,0,0,.61,0v0s0,0,0,0C10.63,8.39,10.64,8.24,10.72,3.53Z"/><path class="cls-3" d="M2.16,12.53l2.27-.81a.24.24,0,0,0,.13-.09l6.06-6.76a.34.34,0,0,0,0-.46l-.75-.75a.34.34,0,0,0-.46,0L2.64,9.71a.3.3,0,0,0-.09.13l-.81,2.27A.32.32,0,0,0,2.16,12.53Z"/><ellipse class="cls-4" cx="11.59" cy="2.68" rx="2.4" ry="0.53" transform="translate(1.5 8.98) rotate(-45)"/><circle class="cls-1" cx="13.29" cy="0.98" r="0.73"/><path class="cls-1" d="M10.69,3.55,9,2.08a.34.34,0,0,0-.54.31l.08.5a.34.34,0,0,0,.09.18L11.2,5.69a.34.34,0,0,0,.19.09l.49.08a.33.33,0,0,0,.31-.54L10.72,3.59Z"/><path class="cls-3" d="M12.53,12.11l-.81-2.27a.24.24,0,0,0-.09-.13L4.87,3.65a.34.34,0,0,0-.46,0l-.75.75a.34.34,0,0,0,0,.46l6.06,6.76a.24.24,0,0,0,.13.09l2.27.81A.32.32,0,0,0,12.53,12.11Z"/><ellipse class="cls-4" cx="2.68" cy="2.68" rx="0.53" ry="2.4" transform="translate(-1.11 2.68) rotate(-45)"/><circle class="cls-1" cx="0.98" cy="0.98" r="0.73"/><path class="cls-1" d="M3.55,3.59,2.08,5.32a.33.33,0,0,0,.31.54l.5-.08a.34.34,0,0,0,.18-.09L5.69,3.07a.34.34,0,0,0,.09-.18l.08-.5a.33.33,0,0,0-.54-.31L3.59,3.55Z"/></g></g></svg>