<svg xmlns="http://www.w3.org/2000/svg" viewBox="0 0 119 127.49"><defs><style>.cls-1{fill:#999;}</style></defs><g id="레이어_2" data-name="레이어 2"><g id="레이어_1-2" data-name="레이어 1"><path class="cls-1" d="M66.65,67.24,59.18,52.61a1.49,1.49,0,0,0-2.81.68V85.07a1.48,1.48,0,0,0,1.49,1.49H89.12a1.49,1.49,0,0,0,.63-2.84L79.61,79a1.48,1.48,0,0,1-.28-2.51c10.15-8,16.35-19.92,16.35-28.48A26.35,26.35,0,0,0,69.35,21.67H30.81a1.49,1.49,0,0,0-1.49,1.49V85.07a1.49,1.49,0,0,0,1.49,1.49h8.56a1.49,1.49,0,0,0,1.49-1.49V34.7a1.49,1.49,0,0,1,1.49-1.49h27.9A13.89,13.89,0,0,1,84.14,47.09c0,6.45-8.6,17.86-15.61,20.86A1.49,1.49,0,0,1,66.65,67.24Z"/><path class="cls-1" d="M55.76,126.52,4,98a7.77,7.77,0,0,1-4-6.8V7.76A7.75,7.75,0,0,1,7.76,0H111.24A7.75,7.75,0,0,1,119,7.76V91.24a7.77,7.77,0,0,1-4,6.8L63.24,126.52A7.71,7.71,0,0,1,55.76,126.52ZM9,95.08l46.74,25.74a7.77,7.77,0,0,0,7.48,0L110,95.08a7.76,7.76,0,0,0,4-6.8V12.76A7.75,7.75,0,0,0,106.24,5H12.76A7.75,7.75,0,0,0,5,12.76V88.28A7.76,7.76,0,0,0,9,95.08Z"/></g></g></svg>