<svg xmlns="http://www.w3.org/2000/svg" viewBox="0 0 18.91 18.89"><defs><style>.cls-1{fill:#12406f;}.cls-2{fill:none;}.cls-3{fill:#fff;}</style></defs><g id="레이어_2" data-name="레이어 2"><g id="레이어_1-2" data-name="레이어 1"><circle class="cls-1" cx="9.47" cy="9.45" r="9.45"/><path class="cls-2" d="M6.52,15.09a2.06,2.06,0,1,0,0-4.11,2,2,0,0,0-.8.17l1.35.54a1.46,1.46,0,0,1,.8,1.89,1.44,1.44,0,0,1-1.89.8l-1.35-.54A2,2,0,0,0,6.52,15.09Z"/><path class="cls-2" d="M12.6,4.6A2.43,2.43,0,0,0,10.17,7a2.4,2.4,0,0,0,1.45,2.22,2.46,2.46,0,0,0,1,.21,2.43,2.43,0,0,0,0-4.86Zm0,4.21A1.78,1.78,0,1,1,14.38,7,1.78,1.78,0,0,1,12.6,8.81Z"/><path class="cls-3" d="M12.6,3.44A3.59,3.59,0,0,0,9,7L6.72,10.41h-.2A2.6,2.6,0,0,0,5,10.87l-5-2c0,.2,0,.4,0,.61a9.42,9.42,0,0,0,.38,2.67L4,13.56a2.63,2.63,0,0,0,5.2-.5c.54-.4,2.57-1.9,3.34-2.45h.11a3.59,3.59,0,1,0,0-7.18ZM6.52,15.09a2,2,0,0,1-1.89-1.25L6,14.38a1.44,1.44,0,0,0,1.89-.8,1.46,1.46,0,0,0-.8-1.89l-1.35-.54a2,2,0,0,1,.8-.17,2.06,2.06,0,1,1,0,4.11ZM12.6,9.46a2.46,2.46,0,0,1-2.21-1.41,2.49,2.49,0,0,1-.22-1A2.43,2.43,0,1,1,12.6,9.46Z"/><circle class="cls-3" cx="12.6" cy="7.03" r="1.78"/></g></g></svg>