<svg xmlns="http://www.w3.org/2000/svg" viewBox="0 0 32.08 37.04"><defs><style>.cls-1{fill:#9ac1dc;}.cls-1,.cls-2,.cls-4{stroke:#fff;}.cls-1,.cls-2,.cls-3,.cls-4{stroke-miterlimit:10;}.cls-2{fill:#a3a4d1;}.cls-3,.cls-4{fill:#d1c6e2;}.cls-3{stroke:#2c2d2d;}</style></defs><g id="레이어_2" data-name="레이어 2"><g id="레이어_1-2" data-name="레이어 1"><polygon class="cls-1" points="16.04 0.58 0.5 9.55 0.5 27.49 10.72 33.4 16.04 36.47 21.36 33.4 31.58 27.49 31.58 9.55 16.04 0.58"/><path class="cls-2" d="M16,3.19,2.82,10.82V26.09l8.7,5c.11-1.13.24-2.23.37-3.31a23.25,23.25,0,0,0-3.06.68v0l-.16.05a4.31,4.31,0,0,0,.47-1.91c0-.15,0-.29,0-.42a5.36,5.36,0,0,0-.24-1.73A3.41,3.41,0,0,0,8,23.12a11.11,11.11,0,0,0-3.53-1.94l-.78-.29A13.26,13.26,0,0,0,6.78,19c0-.17,0-.34,0-.52a9.32,9.32,0,0,1,1.14-4.46,24.25,24.25,0,0,0-1.67-2.41,17.71,17.71,0,0,0,2.52,1.14,9.24,9.24,0,0,1,6.64-3.52A31,31,0,0,1,16,5.86a.25.25,0,0,0,0,.07.25.25,0,0,0,0-.07,31,31,0,0,1,.64,3.41,9.24,9.24,0,0,1,6.64,3.52,17.71,17.71,0,0,0,2.52-1.14,24.25,24.25,0,0,0-1.67,2.41,9.32,9.32,0,0,1,1.14,4.46c0,.18,0,.35,0,.52a13.26,13.26,0,0,0,3.11,1.85l-.78.29a11.11,11.11,0,0,0-3.53,1.94,3.41,3.41,0,0,0-.92,1.33,5.36,5.36,0,0,0-.24,1.73,4.07,4.07,0,0,0-.05.61,4.17,4.17,0,0,0,.35,1.67,24.42,24.42,0,0,0-3-.67c.13,1.08.26,2.19.37,3.32l8.7-5V10.82Z"/><path class="cls-1" d="M20.19,27.79l-.12-.91c-1-7.74-2.44-13.74-4-13.74s-3,6-4,13.74l-.12.92c-.13,1.08-.26,2.18-.37,3.31L16,33.72l4.52-2.61C20.45,30,20.32,28.87,20.19,27.79Z"/><path class="cls-3" d="M17.76,12a6.47,6.47,0,0,0,2.71,1.28,7.71,7.71,0,0,0,2.87-.53A9.24,9.24,0,0,0,16.7,9.27a8,8,0,0,0,.62,2.15A4.61,4.61,0,0,0,17.76,12Z"/><path class="cls-3" d="M25.3,19c0-.17,0-.34,0-.52a9.32,9.32,0,0,0-1.14-4.46,4.24,4.24,0,0,0-.72,1.76A4.32,4.32,0,0,0,25.3,19Z"/><path class="cls-3" d="M8.61,15.82a4.24,4.24,0,0,0-.72-1.76,9.32,9.32,0,0,0-1.14,4.46c0,.18,0,.35,0,.52A4.32,4.32,0,0,0,8.61,15.82Z"/><path class="cls-3" d="M14.32,12a4.61,4.61,0,0,0,.44-.62,8,8,0,0,0,.62-2.15,9.24,9.24,0,0,0-6.64,3.52,7.71,7.71,0,0,0,2.87.53A6.47,6.47,0,0,0,14.32,12Z"/><path class="cls-4" d="M25.3,19a4.32,4.32,0,0,1-1.83-3.22,4.24,4.24,0,0,1,.72-1.76,24.25,24.25,0,0,1,1.67-2.41,17.71,17.71,0,0,1-2.52,1.14,7.71,7.71,0,0,1-2.87.53A6.47,6.47,0,0,1,17.76,12a4.61,4.61,0,0,1-.44-.62,8,8,0,0,1-.62-2.15,31,31,0,0,0-.64-3.41.25.25,0,0,1,0,.07.25.25,0,0,1,0-.07,31,31,0,0,0-.64,3.41,8,8,0,0,1-.62,2.15,4.61,4.61,0,0,1-.44.62,6.47,6.47,0,0,1-2.71,1.28,7.71,7.71,0,0,1-2.87-.53,17.71,17.71,0,0,1-2.52-1.14,24.25,24.25,0,0,1,1.67,2.41,4.24,4.24,0,0,1,.72,1.76A4.32,4.32,0,0,1,6.78,19a13.26,13.26,0,0,1-3.11,1.85l.78.29A11.11,11.11,0,0,1,8,23.12a3.41,3.41,0,0,1,.92,1.33,5.36,5.36,0,0,1,.24,1.73c0,.13,0,.27,0,.42a4.31,4.31,0,0,1-.47,1.91l.16-.05v0a23.25,23.25,0,0,1,3.06-.68l.12-.92c1-7.74,2.44-13.74,4-13.74s3,6,4,13.74l.12.91a24.42,24.42,0,0,1,3,.67,4.17,4.17,0,0,1-.35-1.67,4.07,4.07,0,0,1,.05-.61,5.36,5.36,0,0,1,.24-1.73,3.41,3.41,0,0,1,.92-1.33,11.11,11.11,0,0,1,3.53-1.94l.78-.29A13.26,13.26,0,0,1,25.3,19Z"/></g></g></svg>