<svg xmlns="http://www.w3.org/2000/svg" viewBox="0 0 14.69 18.91"><defs><style>.cls-1{fill:none;stroke:#e4f3f9;stroke-miterlimit:10;stroke-width:0.75px;}.cls-2{fill:#fff;}</style></defs><g id="레이어_2" data-name="레이어 2"><g id="레이어_1-2" data-name="레이어 1"><path class="cls-1" d="M14.31,10.23c0,5-3.59,8.31-7,8.31s-7-3.35-7-8.31S4.58.38,7.34.38C9.69.38,14.31,5.28,14.31,10.23Z"/><path class="cls-2" d="M9.59,4.6a.23.23,0,0,0-.39.22c.32.82,1,1.33,1,2.65a5.26,5.26,0,0,1-.82,2.65,1.87,1.87,0,0,1-1,.75,1.07,1.07,0,0,0-.56.45,1.34,1.34,0,0,0,1.06,2.1c1.48,0,2.67-2.08,2.67-4.64C11.6,6.78,10.38,5.71,9.59,4.6Z"/><path class="cls-2" d="M5.19,6.73a.2.2,0,0,1,.35.18c-.28.93-1.08,1.41-1.08,2.83a5.26,5.26,0,0,0,.82,2.65,1.81,1.81,0,0,0,1,.74,1.1,1.1,0,0,1,.56.46,1.34,1.34,0,0,1-1.06,2.1c-1.46,0-2.65-2.08-2.65-4.64C3.09,9,4.41,7.89,5.19,6.73Z"/></g></g></svg>