<svg xmlns="http://www.w3.org/2000/svg" viewBox="0 0 16.15 17.88"><defs><style>.cls-1{fill:#848484;}.cls-2{fill:#e5e5e5;}.cls-3{fill:#ccc;}.cls-4{fill:#ea5967;}.cls-5{fill:#ec7981;}</style></defs><g id="레이어_2" data-name="레이어 2"><g id="레이어_1-2" data-name="레이어 1"><path class="cls-1" d="M5.44,13.65C3.28,12.18,2.13,10,2.5,8.29A2.52,2.52,0,0,0,1.8,9c-1.16,1.7,0,4.51,2.57,6.26s5.6,1.79,6.76.09a2.55,2.55,0,0,0,.38-.9C10.08,15.38,7.6,15.12,5.44,13.65Z"/><path class="cls-2" d="M10.25,6.58C6.9,4.3,2.7,4.65.86,7.36s-.62,6.75,2.72,9,7.55,1.93,9.39-.78S13.59,8.85,10.25,6.58ZM4.37,15.23C1.79,13.48.64,10.67,1.8,9a2.52,2.52,0,0,1,.7-.68c1.42-1,3.9-.71,6.06.77s3.32,3.68,2.95,5.36a2.55,2.55,0,0,1-.38.9C10,17,6.94,17,4.37,15.23Z"/><rect class="cls-3" x="6.1" y="2.05" width="9.83" height="6.8" rx="2.64" transform="translate(4.97 -5.25) rotate(34.22)"/><rect class="cls-2" x="6.88" y="1.84" width="8.99" height="6.14" rx="2.77" transform="translate(4.73 -5.55) rotate(34.22)"/><rect class="cls-4" x="7.7" y="0.56" width="8.5" height="7.03" rx="3.32" transform="translate(4.36 -6.01) rotate(34.22)"/><rect class="cls-5" x="8.52" y="0.75" width="7.86" height="5.18" rx="2.59" transform="translate(4.03 -6.42) rotate(34.22)"/></g></g></svg>