<svg xmlns="http://www.w3.org/2000/svg" viewBox="0 0 120.21 120.21"><defs><style>.cls-1{fill:#ddd;}</style></defs><g id="레이어_2" data-name="레이어 2"><g id="레이어_1-2" data-name="레이어 1"><path class="cls-1" d="M60.11,0a60.11,60.11,0,1,0,60.1,60.11A60.11,60.11,0,0,0,60.11,0ZM96.24,61.24A6.73,6.73,0,0,1,89.51,68H68V89.51a6.73,6.73,0,0,1-6.73,6.73H59a6.73,6.73,0,0,1-6.74-6.73V68H30.71A6.73,6.73,0,0,1,24,61.24V59a6.74,6.74,0,0,1,6.74-6.74H52.24V30.71A6.74,6.74,0,0,1,59,24h2.26A6.73,6.73,0,0,1,68,30.71V52.24H89.51A6.73,6.73,0,0,1,96.24,59Z"/></g></g></svg>