<svg xmlns="http://www.w3.org/2000/svg" viewBox="0 0 34.74 34.74"><defs><style>.cls-1,.cls-3{fill:#eacc39;}.cls-1{stroke:#7f6f3f;stroke-miterlimit:10;}.cls-2{fill:#c3942e;}</style></defs><g id="레이어_2" data-name="레이어 2"><g id="레이어_1-2" data-name="레이어 1"><circle class="cls-1" cx="17.37" cy="17.37" r="16.87"/><circle class="cls-2" cx="17.37" cy="17.37" r="12.49"/><path class="cls-3" d="M27.82,14.7a.8.8,0,0,0-.73-1.34l-5.32,1a.79.79,0,0,1-.88-.48L18.11,7.22a.8.8,0,0,0-1.48,0L13.85,13.9a.8.8,0,0,1-.89.48l-5.31-1a.8.8,0,0,0-.73,1.34l4.47,4.69a.82.82,0,0,1,.18.82L10.24,24a.79.79,0,0,0,1.12,1l4-2.16a.69.69,0,0,1,1,.52l.53,4.11a.43.43,0,0,0,.86,0l.52-4.06a.69.69,0,0,1,1-.52l4,2.16a.8.8,0,0,0,1.13-1l-1.34-3.84a.8.8,0,0,1,.17-.81Z"/></g></g></svg>