<svg xmlns="http://www.w3.org/2000/svg" viewBox="0 0 14.35 14.15"><defs><style>.cls-1,.cls-2,.cls-3{fill:none;}.cls-2,.cls-3{stroke:#fff;stroke-linecap:round;stroke-linejoin:round;}.cls-2{stroke-width:0.75px;}</style></defs><g id="레이어_2" data-name="레이어 2"><g id="레이어_1-2" data-name="레이어 1"><path class="cls-1" d="M2.65,13.65l.15-.15Z"/><path class="cls-1" d="M5.78.5s-1,4.35-1,4.6Z"/><path class="cls-1" d="M9.65,6.65,6.75,2.8S9.35,6.45,9.65,6.65Z"/><path class="cls-2" d="M5.78.5.85,3l4,2.15C4.8,4.85,5.78.5,5.78.5Z"/><path class="cls-2" d="M4.74,5.35,4.8,5.1C4.8,5.35.85,3,.85,3L.5,9.65,2.65,11V8Z"/><path class="cls-2" d="M4.8,5.1.85,3S4.8,5.35,4.8,5.1Z"/><polygon class="cls-2" points="5.1 4.89 6.71 2.85 5.78 0.5 4.8 5.1 5.1 4.89"/><polygon class="cls-2" points="4.8 5.1 4.74 5.35 5.1 4.89 4.8 5.1"/><path class="cls-2" d="M6.75,2.8l0,.05-1.61,2-.36.46L2.65,8v5.65l.15-.15L9.65,6.65C9.35,6.45,6.75,2.8,6.75,2.8Z"/><polygon class="cls-2" points="13.85 2.8 6.75 2.8 9.65 6.65 13.85 2.8"/><path class="cls-2" d="M2.8,13.5l-.15.15h5l5.8-5.2-3.8-1.8C9.93,6.83,3.81,12.53,2.8,13.5Z"/><path class="cls-2" d="M9.65,6.65,2.8,13.5C3.81,12.53,9.93,6.83,9.65,6.65Z"/><path class="cls-2" d="M9.65,6.65l3.8,1.8.4-5.65S9.9,6.5,9.65,6.65Z"/><path class="cls-2" d="M13.85,2.8,9.65,6.65C9.9,6.5,13.85,2.8,13.85,2.8Z"/><path class="cls-1" d="M2.65,13.65l.15-.15Z"/><path class="cls-3" d="M6.71,2.85,5.78.5.85,3,.5,9.65,2.65,11V8Z"/><path class="cls-3" d="M6.75,2.8l0,.05L2.65,8v5.65l.15-.15-.15.15h5l5.8-5.2.4-5.65Z"/></g></g></svg>