<svg xmlns="http://www.w3.org/2000/svg" viewBox="0 0 19.89 19.89"><defs><style>.cls-1,.cls-3{fill:none;}.cls-2{fill:#fff;}.cls-3{stroke:#fff;stroke-miterlimit:10;}</style></defs><g id="레이어_2" data-name="레이어 2"><g id="레이어_1-2" data-name="레이어 1"><path class="cls-1" d="M9.94.49A9.46,9.46,0,0,0,.5,9.34l5,2A2.6,2.6,0,0,1,7,10.91h.2L9.49,7.52a3.59,3.59,0,1,1,3.59,3.6H13c-.77.55-2.8,2.05-3.34,2.45a2.63,2.63,0,0,1-5.2.5L.86,12.62A9.46,9.46,0,1,0,9.94.49Z"/><path class="cls-1" d="M7,15.59a2.06,2.06,0,1,0,0-4.11,2,2,0,0,0-.8.17l1.35.54a1.46,1.46,0,0,1,.8,1.89,1.44,1.44,0,0,1-1.89.8l-1.35-.54A2,2,0,0,0,7,15.59Z"/><path class="cls-1" d="M13.08,5.1a2.43,2.43,0,0,0-2.43,2.43A2.4,2.4,0,0,0,12.1,9.75a2.46,2.46,0,0,0,1,.21,2.43,2.43,0,0,0,0-4.86Zm0,4.21a1.78,1.78,0,1,1,1.78-1.78A1.78,1.78,0,0,1,13.08,9.31Z"/><path class="cls-2" d="M13.08,3.94A3.59,3.59,0,0,0,9.49,7.52L7.2,10.91H7a2.6,2.6,0,0,0-1.48.46l-5-2c0,.2,0,.4,0,.61a9.42,9.42,0,0,0,.38,2.67l3.57,1.44a2.63,2.63,0,0,0,5.2-.5c.54-.4,2.57-1.9,3.34-2.45h.11a3.59,3.59,0,1,0,0-7.18ZM7,15.59a2,2,0,0,1-1.89-1.25l1.35.54a1.44,1.44,0,0,0,1.89-.8,1.46,1.46,0,0,0-.8-1.89L6.2,11.65a2,2,0,0,1,.8-.17,2.06,2.06,0,1,1,0,4.11ZM13.08,10a2.46,2.46,0,0,1-2.21-1.41,2.49,2.49,0,0,1-.22-1A2.43,2.43,0,1,1,13.08,10Z"/><circle class="cls-2" cx="13.08" cy="7.53" r="1.78"/><circle class="cls-3" cx="9.95" cy="9.95" r="9.45"/></g></g></svg>