<svg xmlns="http://www.w3.org/2000/svg" viewBox="0 0 16.51 18.26"><defs><style>.cls-1,.cls-2,.cls-4{fill:none;}.cls-2,.cls-4{stroke:#e5e5e5;stroke-miterlimit:10;}.cls-2{stroke-width:0.75px;}.cls-3{fill:#e5e5e5;}.cls-4{stroke-width:0.5px;}</style></defs><g id="레이어_2" data-name="레이어 2"><g id="레이어_1-2" data-name="레이어 1"><path class="cls-1" d="M8.7,9.41C6.78,8.1,4.59,7.87,3.33,8.73a2.09,2.09,0,0,0-.62.6c-1,1.51,0,4,2.27,5.54s5,1.59,6,.08a2.28,2.28,0,0,0,.34-.8C11.63,12.66,10.61,10.71,8.7,9.41Z"/><path class="cls-2" d="M11.36,9.54,7.6,7A2.57,2.57,0,0,1,6.48,5.1,5.68,5.68,0,0,0,1.23,7.36c-1.84,2.7-.62,6.74,2.73,9s7.55,1.92,9.39-.78a5.69,5.69,0,0,0,.17-5.71A2.65,2.65,0,0,1,11.36,9.54Zm0,4.61A2.28,2.28,0,0,1,11,15c-1,1.51-3.71,1.47-6-.08s-3.3-4-2.27-5.54a2.09,2.09,0,0,1,.62-.6c1.26-.86,3.45-.63,5.37.68S11.63,12.66,11.31,14.15Z"/><path class="cls-3" d="M16.21,5.3a1.74,1.74,0,0,0-.1.19,2.72,2.72,0,0,1-.47,1.7l-.33.5A2.78,2.78,0,0,1,13,8.89a2.71,2.71,0,0,1-1.49-.47L8.6,6.48a2.79,2.79,0,0,1-1-1.21,2.75,2.75,0,0,1,.25-2.64l.34-.5a2.66,2.66,0,0,1,1.41-1A1.07,1.07,0,0,1,9.76.92a2.61,2.61,0,0,0-2,1.13L6.9,3.31A2.57,2.57,0,0,0,6.48,5.1,2.57,2.57,0,0,0,7.6,7l3.76,2.57A2.69,2.69,0,0,0,15,8.84l.86-1.26A2.65,2.65,0,0,0,16.21,5.3Z"/><path class="cls-4" d="M16.07,5.55a2.6,2.6,0,0,1-3.6.68l-2.21-1.5a2.61,2.61,0,0,1-.68-3.6l0,0a2.66,2.66,0,0,0-1.41,1l-.34.5a2.75,2.75,0,0,0-.25,2.64,2.79,2.79,0,0,0,1,1.21l2.86,1.94A2.71,2.71,0,0,0,13,8.89a2.78,2.78,0,0,0,2.36-1.2l.33-.5a2.72,2.72,0,0,0,.47-1.7S16.09,5.53,16.07,5.55Z"/><path class="cls-3" d="M15.39,2,13.18.44A2.58,2.58,0,0,0,9.76.92a1.07,1.07,0,0,0-.14.16l0,0a2.61,2.61,0,0,0,.68,3.6l2.21,1.5a2.6,2.6,0,0,0,3.6-.68s0,0,0-.06a1.74,1.74,0,0,1,.1-.19A2.58,2.58,0,0,0,15.39,2Z"/></g></g></svg>