<svg xmlns="http://www.w3.org/2000/svg" viewBox="0 0 62.43 56.73"><defs><style>.cls-1{fill:#fdeced;}.cls-1,.cls-2,.cls-5{stroke:#040000;}.cls-1,.cls-2{stroke-miterlimit:10;}.cls-2{fill:#fefafa;}.cls-3{fill:#040000;}.cls-4,.cls-5{fill:none;}.cls-5{stroke-linecap:round;stroke-linejoin:round;}.cls-6{fill:#fff;}.cls-7{fill:#b11e24;}.cls-8{fill:#f094b3;}</style></defs><g id="레이어_2" data-name="레이어 2"><g id="레이어_1-2" data-name="레이어 1"><ellipse class="cls-1" cx="5.65" cy="38.77" rx="4.91" ry="7.17" transform="matrix(0.96, -0.3, 0.3, 0.96, -11.23, 3.41)"/><ellipse class="cls-1" cx="56.61" cy="39.61" rx="7.17" ry="4.91" transform="translate(-2.09 76.06) rotate(-66.82)"/><path class="cls-2" d="M59.21,17.86C62.4,46.18,47.09,56.22,32.08,56.23,7,56.24,2.54,45,5,17.86,5.8,8.32,17.1.5,32.08.5S58.13,8.33,59.21,17.86Z"/><ellipse class="cls-3" cx="35.94" cy="37.46" rx="4.87" ry="4.72"/><circle class="cls-4" cx="46.75" cy="22.31" r="3.24"/><ellipse class="cls-3" cx="13.84" cy="37.46" rx="4.12" ry="4.72"/><path class="cls-5" d="M23.57,45.82a2.63,2.63,0,0,1-5.25,0"/><path class="cls-5" d="M28.82,45.82a2.63,2.63,0,0,1-5.25,0"/><path class="cls-5" d="M32,27.55c.23-1.43,2.38-2.29,4.8-1.91"/><path class="cls-5" d="M16.59,27.53c-.23-1.43-2.39-2.27-4.81-1.87"/><ellipse class="cls-6" cx="33.41" cy="36.37" rx="1.12" ry="1.09" transform="translate(-10.28 13.34) rotate(-19.64)"/><ellipse class="cls-6" cx="12.4" cy="36.37" rx="1.12" ry="1.09" transform="translate(-11.5 6.28) rotate(-19.64)"/><path class="cls-7" d="M16.41,37.16c0,1.49-1.16,3.39-2.46,3.39s-2.19-.35-2-1.2,1.37.48,2.56-3C14.85,35.43,16.36,35.2,16.41,37.16Z"/><path class="cls-7" d="M38.61,37.22c0,1.39-1.2,3.18-2.55,3.18s-2.28-.34-2-1.13,1.42.45,2.66-2.83C37,35.6,38.56,35.39,38.61,37.22Z"/><ellipse class="cls-8" cx="40.81" cy="45.82" rx="4.87" ry="3.14"/><ellipse class="cls-6" cx="40.81" cy="44.76" rx="1.08" ry="1.05"/><path class="cls-8" d="M14.11,45.29c0-1.71-2-3.1-4.4-3.1A4.47,4.47,0,0,0,7,42.85c.9,2.14.76,2.77,3,5.4C11.81,47.87,14.11,46.7,14.11,45.29Z"/><ellipse class="cls-6" cx="9.72" cy="44.76" rx="1.08" ry="1.05"/></g></g></svg>