<svg xmlns="http://www.w3.org/2000/svg" viewBox="0 0 32.08 36.89"><defs><style>.cls-1{fill:none;stroke:#fff;stroke-linecap:square;stroke-linejoin:round;}</style></defs><g id="레이어_2" data-name="레이어 2"><g id="레이어_1-2" data-name="레이어 1"><path class="cls-1" d="M17.76,12a6.45,6.45,0,0,0,2.71,1.27,7.67,7.67,0,0,0,2.87-.52A9.25,9.25,0,0,0,16.7,9.19a8,8,0,0,0,.62,2.15A4.15,4.15,0,0,0,17.76,12Z"/><path class="cls-1" d="M25.3,19c0-.17,0-.34,0-.52A9.35,9.35,0,0,0,24.19,14a4.24,4.24,0,0,0-.72,1.76A4.32,4.32,0,0,0,25.3,19Z"/><path class="cls-1" d="M8.61,15.74A4.24,4.24,0,0,0,7.89,14a9.35,9.35,0,0,0-1.14,4.46c0,.18,0,.35,0,.52A4.32,4.32,0,0,0,8.61,15.74Z"/><path class="cls-1" d="M14.32,12a4.15,4.15,0,0,0,.44-.63,8,8,0,0,0,.62-2.15,9.25,9.25,0,0,0-6.64,3.53,7.67,7.67,0,0,0,2.87.52A6.45,6.45,0,0,0,14.32,12Z"/><path class="cls-1" d="M16,3.11,2.82,10.75V26l8.7,5c.11-1.13.24-2.23.37-3.31a23.25,23.25,0,0,0-3.06.68h0l-.16,0a4.28,4.28,0,0,0,.47-1.91c0-.14,0-.28,0-.42a5.26,5.26,0,0,0-.24-1.72A3.34,3.34,0,0,0,8,23.05,11.1,11.1,0,0,0,4.45,21.1l-.78-.29A12.93,12.93,0,0,0,6.78,19c0-.17,0-.34,0-.52A9.35,9.35,0,0,1,7.89,14a25.51,25.51,0,0,0-1.67-2.41,17.86,17.86,0,0,0,2.52,1.15,9.25,9.25,0,0,1,6.64-3.53A31.51,31.51,0,0,1,16,5.78a.19.19,0,0,0,0,.07.19.19,0,0,0,0-.07,31.51,31.51,0,0,1,.64,3.41,9.25,9.25,0,0,1,6.64,3.53,17.86,17.86,0,0,0,2.52-1.15A25.51,25.51,0,0,0,24.19,14a9.35,9.35,0,0,1,1.14,4.46c0,.18,0,.35,0,.52a12.93,12.93,0,0,0,3.11,1.85l-.78.29a11.1,11.1,0,0,0-3.53,1.95,3.34,3.34,0,0,0-.92,1.33,5.26,5.26,0,0,0-.24,1.72,4.07,4.07,0,0,0-.05.61,4.25,4.25,0,0,0,.35,1.68,22.74,22.74,0,0,0-3-.68c.13,1.08.26,2.19.37,3.32l8.7-5V10.75Z"/><path class="cls-1" d="M25.3,19a4.32,4.32,0,0,1-1.83-3.22A4.24,4.24,0,0,1,24.19,14a25.51,25.51,0,0,1,1.67-2.41,17.86,17.86,0,0,1-2.52,1.15,7.67,7.67,0,0,1-2.87.52A6.45,6.45,0,0,1,17.76,12a4.15,4.15,0,0,1-.44-.63,8,8,0,0,1-.62-2.15,31.51,31.51,0,0,0-.64-3.41.19.19,0,0,1,0,.07.19.19,0,0,1,0-.07,31.51,31.51,0,0,0-.64,3.41,8,8,0,0,1-.62,2.15,4.15,4.15,0,0,1-.44.63,6.45,6.45,0,0,1-2.71,1.27,7.67,7.67,0,0,1-2.87-.52,17.86,17.86,0,0,1-2.52-1.15A25.51,25.51,0,0,1,7.89,14a4.24,4.24,0,0,1,.72,1.76A4.32,4.32,0,0,1,6.78,19a12.93,12.93,0,0,1-3.11,1.85l.78.29A11.1,11.1,0,0,1,8,23.05a3.34,3.34,0,0,1,.92,1.33,5.26,5.26,0,0,1,.24,1.72c0,.14,0,.28,0,.42a4.28,4.28,0,0,1-.47,1.91l.16,0h0a23.25,23.25,0,0,1,3.06-.68L12,26.8c1-7.73,2.44-13.73,4-13.73s3,6,4,13.73l.12.91a22.74,22.74,0,0,1,3,.68,4.25,4.25,0,0,1-.35-1.68,4.07,4.07,0,0,1,.05-.61,5.26,5.26,0,0,1,.24-1.72,3.34,3.34,0,0,1,.92-1.33,11.1,11.1,0,0,1,3.53-1.95l.78-.29A12.93,12.93,0,0,1,25.3,19Z"/><path class="cls-1" d="M20.19,27.71l-.12-.91c-1-7.73-2.44-13.73-4-13.73s-3,6-4,13.73l-.12.92c-.13,1.08-.26,2.18-.37,3.31L16,33.64,20.56,31C20.45,29.9,20.32,28.79,20.19,27.71Z"/><polygon class="cls-1" points="16.04 0.5 0.5 9.47 0.5 27.42 10.72 33.32 16.04 36.39 21.36 33.32 31.58 27.42 31.58 9.47 16.04 0.5"/></g></g></svg>