<svg xmlns="http://www.w3.org/2000/svg" viewBox="0 0 65.29 65.29"><defs><style>.cls-1{fill:#fefafa;stroke-miterlimit:10;}.cls-1,.cls-2{stroke:#040000;stroke-width:2px;}.cls-2{fill:none;stroke-linecap:round;stroke-linejoin:round;}.cls-3{fill:#f094b3;}.cls-4{fill:#fff;}.cls-5{fill:#040000;}.cls-6{fill:#b11e24;}</style></defs><g id="레이어_2" data-name="레이어 2"><g id="레이어_1-2" data-name="레이어 1"><rect class="cls-1" x="1" y="1" width="63.29" height="63.29" rx="31.64"/><path class="cls-2" d="M32.64,43.32a3.19,3.19,0,1,1-6.37,0"/><path class="cls-2" d="M39,43.32a3.19,3.19,0,0,1-6.38,0"/><path class="cls-2" d="M42,21.16c.27-1.74,2.88-2.77,5.82-2.31"/><path class="cls-2" d="M23.3,21.14c-.28-1.74-2.9-2.75-5.84-2.27"/><ellipse class="cls-3" cx="13.78" cy="42.73" rx="5.9" ry="3.81"/><ellipse class="cls-3" cx="51.5" cy="42.73" rx="5.9" ry="3.81"/><ellipse class="cls-4" cx="51.5" cy="41.45" rx="1.32" ry="1.28"/><ellipse class="cls-4" cx="13.78" cy="41.45" rx="1.32" ry="1.28"/><ellipse class="cls-5" cx="20.62" cy="33.19" rx="5" ry="5.73"/><ellipse class="cls-4" cx="18.87" cy="31.86" rx="1.36" ry="1.32" transform="translate(-9.61 8.19) rotate(-19.64)"/><path class="cls-6" d="M23.74,32.82c.05,1.8-1.41,4.12-3,4.12s-2.65-.43-2.37-1.46,1.65.58,3.1-3.68C21.84,30.72,23.67,30.44,23.74,32.82Z"/><ellipse class="cls-5" cx="44.67" cy="33.19" rx="5" ry="5.73"/><ellipse class="cls-4" cx="42.92" cy="31.86" rx="1.36" ry="1.32" transform="translate(-8.21 16.28) rotate(-19.64)"/><path class="cls-6" d="M47.79,32.82c.05,1.8-1.41,4.12-3,4.12s-2.65-.43-2.37-1.46,1.65.58,3.1-3.68C45.9,30.72,47.73,30.44,47.79,32.82Z"/></g></g></svg>