<svg xmlns="http://www.w3.org/2000/svg" viewBox="0 0 17.98 17.29"><defs><style>.cls-1{fill:#f5d434;stroke:#fff;stroke-miterlimit:10;}</style></defs><g id="레이어_2" data-name="레이어 2"><g id="레이어_1-2" data-name="레이어 1"><path class="cls-1" d="M10.29,1.31l1.5,3a1.45,1.45,0,0,0,1.1.8l3.35.49A1.45,1.45,0,0,1,17,8.11l-2.42,2.36a1.46,1.46,0,0,0-.42,1.29l.57,3.33a1.45,1.45,0,0,1-2.11,1.53l-3-1.57a1.48,1.48,0,0,0-1.36,0l-3,1.57a1.45,1.45,0,0,1-2.11-1.53l.57-3.33a1.43,1.43,0,0,0-.42-1.29L.94,8.11a1.45,1.45,0,0,1,.81-2.48L5.1,5.14a1.46,1.46,0,0,0,1.09-.8l1.5-3A1.45,1.45,0,0,1,10.29,1.31Z"/></g></g></svg>