<svg xmlns="http://www.w3.org/2000/svg" viewBox="0 0 14.35 14.15"><defs><style>.cls-1{fill:#fcebeb;}.cls-2{fill:#d43c38;}.cls-3{fill:#e47f70;}.cls-4{fill:#b51f23;}.cls-5{fill:none;stroke:#fff;stroke-linecap:round;stroke-linejoin:round;}.cls-6{fill:#c3271f;}.cls-7{fill:#eba193;}.cls-8{fill:#410211;}</style></defs><g id="레이어_2" data-name="레이어 2"><g id="레이어_1-2" data-name="레이어 1"><path class="cls-1" d="M.85,3s4,2.4,4,2.15,1-4.6,1-4.6Z"/><polygon class="cls-2" points="0.85 2.95 0.5 9.65 3.32 11.43 4.8 5.1 0.85 2.95"/><polygon class="cls-3" points="5.78 0.5 7 3.58 4.8 5.1 5.78 0.5"/><polygon class="cls-4" points="3.32 11.43 7 3.58 4.8 5.1 3.32 11.43"/><polygon class="cls-5" points="5.78 0.5 5.78 0.5 0.85 2.95 0.5 9.65 3.32 11.43 7 3.58 5.78 0.5"/><path class="cls-6" d="M2.65,8v5.65c0-.05,7.3-6.8,7-7S6.75,2.8,6.75,2.8Z"/><path class="cls-7" d="M9.65,6.65c.25-.15,4.2-3.85,4.2-3.85H6.75Z"/><polygon class="cls-8" points="2.65 13.65 7.65 13.65 13.45 8.45 9.65 6.65 2.65 13.65"/><polygon class="cls-4" points="13.85 2.8 13.45 8.45 9.65 6.65 13.85 2.8"/><path class="cls-5" d="M6.75,2.8h0L2.65,8v5.65l.15-.15-.15.15h5l5.8-5.2.4-5.65Z"/></g></g></svg>